<svg xmlns="http://www.w3.org/2000/svg" width="217" height="166" fill="none"><g clip-path="url(#a)"><path fill="#E4E2DD" d="M127.241 128.679c-17.261-5.054-35.015-5.832-51.29-2.333-11.343 2.333-22.193 6.998-32.057 12.829l-6.905 4.665-1.972 1.555 4.438 3.11c.493 0 .493.389.986.778.987.777 1.973 1.166 3.453 1.944l2.959 1.555 2.959-1.944c.493-.389 1.48-1.166 2.466-1.555 8.877-5.832 18.74-9.719 29.098-11.663 13.315-2.721 27.618-2.332 41.92 1.944 11.836 3.499 36.002 7.775 65.1-1.944l.986-.389 1.48-1.166c0-.389.493-.389.986-.777 2.466-2.333 4.932-4.666 6.905-7.387l9.863-12.051-15.781 6.997c-23.18 10.108-44.387 12.052-65.594 5.832ZM59.675 86.694c13.316-2.722 27.618-2.333 41.92 1.943 15.782 4.665 56.223 11.275 101.595-20.993l7.398-5.83.493-.39 1.973-1.555-.986-1.944c-.494-1.554-1.48-3.498-2.466-5.442l-2.466-5.443-4.932 3.888c-.493.777-1.48 1.166-2.466 1.944-21.7 17.494-55.236 35.377-93.704 24.492-17.262-5.054-35.016-5.832-51.291-2.333C38.96 78.53 25.152 85.139 12.329 94.469v-.389l-7.398 6.22c0 .389-.493.389-.986.778l-1.48 1.166.494 1.555c.493 1.944 1.48 3.888 1.972 5.831l2.96 6.221 4.931-5.054c.494-.778 1.48-1.167 1.973-1.944 10.357-7.386 24.66-17.883 44.88-22.16Z"/><path fill="#E4E2DD" d="M11.836 79.695c11.344-9.33 24.166-15.162 37.975-18.272 13.316-2.721 27.619-2.332 41.92 1.944 44.387 12.83 82.855-8.164 99.623-19.438l6.412-5.054 2.466-1.555-1.973-2.332c-1.48-1.166-2.466-2.722-3.945-4.277l-2.96-3.11-3.452 2.722-1.973 1.555c-20.713 15.55-52.77 31.49-89.265 20.604-17.262-5.054-35.016-5.831-51.291-2.333-10.357 2.333-20.22 6.22-30.084 11.274l-10.357 6.61-2.466 1.943-.986.778v1.166C.986 74.64.986 77.362.493 79.695L0 89.414l8.384-6.998c.987-.777 1.973-1.944 3.452-2.721ZM141.543 155.115c-1.48-.389-2.466-.778-3.946-1.166-17.261-5.054-35.016-5.832-51.29-2.333-3.453.778-6.905 1.555-10.358 2.721l-11.836 4.277-2.959 1.166 9.864 2.721 8.877 2.333 1.48.389 1.479-.389c1.48-.389 2.959-1.167 4.439-1.167.986 0 1.972-.388 2.959-.777 11.836-2.333 24.659-2.333 38.468 1.166 1.479.389 2.466.778 3.945 1.167l2.466.777 1.48-.389c3.452-.777 7.397-1.555 10.357-2.721l13.809-3.888-14.303-2.721c-1.479-.389-3.452-.777-4.931-1.166ZM217 74.641l-7.398 5.832-2.959 2.332c-20.22 15.162-52.77 31.49-89.265 20.604-17.262-5.053-35.016-5.83-51.291-2.332-15.289 3.499-29.098 9.719-41.428 19.049l-6.41 5.443-1.973 1.944 1.972 2.332c1.48 1.555 2.466 2.721 3.453 4.276l2.958 3.499 3.453-3.499 1.973-1.555c11.836-10.107 24.658-16.328 39.454-19.438 13.316-2.721 27.618-2.332 41.92 1.944 12.33 3.499 25.153 4.665 37.975 3.499 22.687-1.944 45.373-12.051 62.141-23.325.987-.778 1.973-1.167 2.959-1.944l1.48-1.167V90.97c0-2.332.493-5.054.493-7.386L217 74.64Z"/><path fill="#E4E2DD" d="M29.59 38.877c2.96-1.167 6.412-1.944 9.371-2.722 13.316-2.721 27.618-2.332 41.92 1.944 9.371 2.721 18.742 3.888 29.098 3.888 20.714 0 41.428-5.832 60.662-17.106l7.397-4.665 2.466-1.555-4.438-2.721a22.488 22.488 0 0 0-5.425-3.11l-2.959-1.555-2.466 1.555c-.987.389-1.48 1.166-2.466 1.555-26.139 15.55-52.277 19.826-76.936 12.44-17.755-5.054-35.51-6.22-53.264-1.944-1.48.389-2.96.778-4.932 1.166l-.986.39-1.48 1.165c0 .39-.493.39-.986.778-1.973 2.333-4.439 4.277-6.412 6.609l-9.37 11.274 15.289-6.22c2.466 0 4.438-.778 5.918-1.166ZM70.032 12.44l1.48.389c6.41 1.944 16.274 3.888 28.604 3.888 12.823 0 25.152-2.333 37.482-6.22l15.288-5.832-10.357-2.721c-2.959-.778-5.918-1.555-9.37-1.944h-1.48L130.2.389c-1.48.388-2.959 1.166-4.439 1.555-14.795 4.276-29.59 5.054-43.893 1.944L77.43 2.72l-1.48-.389-1.48.39c-2.959.777-5.918 1.554-8.877 2.72L54.25 9.33l11.836 2.721c.987-.388 2.466 0 3.946.39Z"/><path fill="#0C222F" d="M217 61H0v50h217V61Z"/><path fill="#E4E2DD" d="M72.784 105v-7.128l-1.12-.072c-.15-.016-.224-.083-.224-.2v-.312h1.344V96.28c0-.453.059-.85.176-1.192.117-.347.283-.635.496-.864.213-.23.47-.4.768-.512.299-.117.63-.176.992-.176.165 0 .33.016.496.048.17.027.323.067.456.12l-.024.368c-.01.048-.035.08-.072.096a.484.484 0 0 1-.144.016 11.464 11.464 0 0 1-.248-.024 2.281 2.281 0 0 0-.352-.024c-.261 0-.504.04-.728.12a1.378 1.378 0 0 0-.568.368c-.16.17-.285.395-.376.672-.085.272-.128.608-.128 1.008v.984h2.584v.568h-2.56V105h-.768Zm7.82-8.088c.571 0 1.08.099 1.529.296.453.192.834.467 1.144.824.309.357.544.79.704 1.296a5.37 5.37 0 0 1 .248 1.688 5.37 5.37 0 0 1-.248 1.688c-.16.501-.395.931-.704 1.288-.31.357-.691.632-1.144.824-.448.192-.958.288-1.528.288-.571 0-1.083-.096-1.536-.288a3.168 3.168 0 0 1-1.144-.824 3.725 3.725 0 0 1-.712-1.288 5.537 5.537 0 0 1-.24-1.688c0-.624.08-1.187.24-1.688.165-.507.402-.939.712-1.296a3.164 3.164 0 0 1 1.144-.824 3.813 3.813 0 0 1 1.536-.296Zm0 7.592c.475 0 .889-.08 1.24-.24.358-.165.654-.4.889-.704.24-.304.418-.669.536-1.096.117-.432.176-.915.176-1.448 0-.528-.059-1.008-.176-1.44a3.046 3.046 0 0 0-.536-1.104 2.318 2.318 0 0 0-.888-.712c-.352-.165-.766-.248-1.24-.248-.475 0-.891.083-1.248.248a2.402 2.402 0 0 0-.888.712 3.23 3.23 0 0 0-.536 1.104 5.492 5.492 0 0 0-.176 1.44c0 .533.058 1.016.176 1.448.122.427.301.792.536 1.096.24.304.536.539.888.704.357.16.773.24 1.248.24Zm6.499-5.544c.122-.325.26-.613.416-.864a2.85 2.85 0 0 1 .543-.648c.209-.176.438-.31.689-.4.255-.096.538-.144.847-.144.166 0 .329.016.489.048.16.027.3.077.423.152l-.064.528c-.026.085-.077.128-.151.128-.064 0-.163-.019-.296-.056a1.89 1.89 0 0 0-.512-.056c-.31 0-.584.048-.825.144a1.89 1.89 0 0 0-.64.416 2.799 2.799 0 0 0-.496.696 6.654 6.654 0 0 0-.383.944V105h-.769v-7.96h.409c.09 0 .154.019.192.056.037.037.06.101.072.192l.056 1.672Zm9.696-.576a4.498 4.498 0 0 1 1.256-1.072 3.193 3.193 0 0 1 1.592-.4c.437 0 .821.07 1.152.208.336.139.613.339.832.6.218.261.384.576.496.944.112.368.168.784.168 1.248V105h-.768v-5.088c0-.747-.171-1.33-.512-1.752-.342-.427-.862-.64-1.56-.64-.518 0-1.003.133-1.456.4a4.07 4.07 0 0 0-1.2 1.096V105h-.768V93.36h.768v5.024Zm11.181-1.472c.57 0 1.08.099 1.528.296.453.192.834.467 1.144.824.309.357.544.79.704 1.296.165.501.248 1.064.248 1.688 0 .624-.083 1.187-.248 1.688a3.63 3.63 0 0 1-.704 1.288c-.31.357-.691.632-1.144.824-.448.192-.958.288-1.528.288a3.902 3.902 0 0 1-1.536-.288 3.162 3.162 0 0 1-1.144-.824 3.707 3.707 0 0 1-.712-1.288 5.537 5.537 0 0 1-.24-1.688c0-.624.08-1.187.24-1.688.165-.507.402-.939.712-1.296a3.158 3.158 0 0 1 1.144-.824 3.81 3.81 0 0 1 1.536-.296Zm0 7.592c.474 0 .888-.08 1.24-.24.357-.165.653-.4.888-.704a3.06 3.06 0 0 0 .536-1.096 5.54 5.54 0 0 0 .176-1.448c0-.528-.059-1.008-.176-1.44a3.057 3.057 0 0 0-.536-1.104 2.324 2.324 0 0 0-.888-.712c-.352-.165-.766-.248-1.24-.248-.475 0-.891.083-1.248.248a2.402 2.402 0 0 0-.888.712 3.21 3.21 0 0 0-.536 1.104 5.462 5.462 0 0 0-.176 1.44c0 .533.058 1.016.176 1.448.122.427.301.792.536 1.096.24.304.536.539.888.704.357.16.773.24 1.248.24Zm8.922-7.592c.57 0 1.08.099 1.528.296.453.192.834.467 1.144.824.309.357.544.79.704 1.296.165.501.248 1.064.248 1.688 0 .624-.083 1.187-.248 1.688a3.63 3.63 0 0 1-.704 1.288c-.31.357-.691.632-1.144.824-.448.192-.958.288-1.528.288a3.902 3.902 0 0 1-1.536-.288 3.162 3.162 0 0 1-1.144-.824 3.707 3.707 0 0 1-.712-1.288 5.537 5.537 0 0 1-.24-1.688c0-.624.08-1.187.24-1.688.165-.507.402-.939.712-1.296a3.158 3.158 0 0 1 1.144-.824 3.81 3.81 0 0 1 1.536-.296Zm0 7.592c.474 0 .888-.08 1.24-.24.357-.165.653-.4.888-.704a3.06 3.06 0 0 0 .536-1.096 5.54 5.54 0 0 0 .176-1.448c0-.528-.059-1.008-.176-1.44a3.057 3.057 0 0 0-.536-1.104 2.324 2.324 0 0 0-.888-.712c-.352-.165-.766-.248-1.24-.248-.475 0-.891.083-1.248.248a2.402 2.402 0 0 0-.888.712 3.21 3.21 0 0 0-.536 1.104 5.462 5.462 0 0 0-.176 1.44c0 .533.058 1.016.176 1.448.122.427.301.792.536 1.096.24.304.536.539.888.704.357.16.773.24 1.248.24Zm6.537-11.144v7.096h.368a.662.662 0 0 0 .208-.032.566.566 0 0 0 .224-.152l3.192-3.032a.56.56 0 0 1 .176-.144.47.47 0 0 1 .24-.056h.672l-3.512 3.336c-.096.112-.2.2-.312.264a.8.8 0 0 1 .216.152c.064.053.126.117.184.192l3.688 4.016h-.664a.667.667 0 0 1-.208-.032.45.45 0 0 1-.168-.152l-3.344-3.584a.831.831 0 0 0-.128-.12.391.391 0 0 0-.12-.072.418.418 0 0 0-.152-.04 1.016 1.016 0 0 0-.2-.016h-.36V105h-.768V93.36h.768Zm11.298 7.792c-.758.027-1.411.088-1.96.184-.544.091-.995.216-1.352.376-.352.16-.614.352-.784.576a1.187 1.187 0 0 0-.256.752c0 .267.042.499.128.696.09.192.208.352.352.48.149.123.32.213.512.272.192.059.392.088.6.088.309 0 .592-.032.848-.096.261-.069.501-.163.72-.28a3.65 3.65 0 0 0 .624-.432c.192-.165.381-.344.568-.536v-2.08Zm-4.68-2.984a4.62 4.62 0 0 1 1.312-.944c.458-.213.978-.32 1.56-.32.426 0 .8.07 1.12.208.32.133.584.328.792.584.213.25.373.557.48.92.106.357.16.757.16 1.2V105h-.304c-.16 0-.259-.075-.296-.224l-.112-1.024a8.222 8.222 0 0 1-.656.576 3.493 3.493 0 0 1-1.432.704 3.914 3.914 0 0 1-.896.096 2.64 2.64 0 0 1-.792-.12 2.04 2.04 0 0 1-.688-.368 1.837 1.837 0 0 1-.48-.632c-.118-.261-.176-.573-.176-.936 0-.336.096-.648.288-.936.192-.288.493-.539.904-.752.41-.213.936-.384 1.576-.512.645-.128 1.418-.203 2.32-.224v-.832c0-.736-.16-1.301-.48-1.696-.315-.4-.784-.6-1.408-.6-.384 0-.712.053-.984.16a3.478 3.478 0 0 0-.68.352 4.24 4.24 0 0 0-.456.352c-.118.107-.216.16-.296.16a.24.24 0 0 1-.144-.04.343.343 0 0 1-.096-.104l-.136-.232Zm8.742.216a4.49 4.49 0 0 1 1.256-1.072 3.19 3.19 0 0 1 1.592-.4c.437 0 .821.07 1.152.208.336.139.613.339.832.6.218.261.384.576.496.944.112.368.168.784.168 1.248V105h-.768v-5.088c0-.747-.171-1.33-.512-1.752-.342-.427-.862-.64-1.56-.64-.518 0-1.003.133-1.456.4a4.07 4.07 0 0 0-1.2 1.096V105h-.768V93.36h.768v5.024ZM48.46 89.288c-.84 0-1.584-.12-2.232-.36a4.553 4.553 0 0 1-1.638-1.062 4.458 4.458 0 0 1-1.008-1.656c-.228-.648-.342-1.38-.342-2.196V74.006h-1.746c-.264 0-.492-.084-.684-.252-.18-.168-.27-.42-.27-.756v-1.944l2.97-.54 1.008-4.806c.132-.54.498-.81 1.098-.81h2.592v5.652h4.788v3.456h-4.788v9.684c0 .516.12.924.36 1.224.252.3.606.45 1.062.45.24 0 .444-.024.612-.072.168-.06.312-.12.432-.18.12-.072.228-.132.324-.18a.662.662 0 0 1 .324-.09c.144 0 .264.036.36.108a.98.98 0 0 1 .288.324l1.494 2.376a7.293 7.293 0 0 1-2.322 1.224 8.76 8.76 0 0 1-2.682.414Zm15.392-19.134c1.392 0 2.658.222 3.798.666a8.282 8.282 0 0 1 2.934 1.908c.816.816 1.446 1.812 1.89 2.988.444 1.176.666 2.502.666 3.978 0 1.476-.222 2.808-.666 3.996-.444 1.176-1.074 2.178-1.89 3.006a8.282 8.282 0 0 1-2.934 1.908c-1.14.444-2.406.666-3.798.666-1.404 0-2.682-.222-3.834-.666a8.282 8.282 0 0 1-2.934-1.908c-.816-.828-1.452-1.83-1.908-3.006-.444-1.188-.666-2.52-.666-3.996s.222-2.802.666-3.978c.456-1.176 1.092-2.172 1.908-2.988a8.282 8.282 0 0 1 2.934-1.908c1.152-.444 2.43-.666 3.834-.666Zm0 15.39c1.416 0 2.466-.486 3.15-1.458.684-.984 1.026-2.442 1.026-4.374 0-1.92-.342-3.366-1.026-4.338-.684-.984-1.734-1.476-3.15-1.476-1.452 0-2.52.492-3.204 1.476-.684.972-1.026 2.418-1.026 4.338 0 1.932.342 3.39 1.026 4.374.684.972 1.752 1.458 3.204 1.458Zm17.375-1.44c.468.54.972.918 1.512 1.134a4.653 4.653 0 0 0 1.71.324c.612 0 1.164-.108 1.656-.324a3.322 3.322 0 0 0 1.296-1.062c.36-.492.636-1.128.828-1.908.192-.78.288-1.722.288-2.826 0-.984-.078-1.818-.234-2.502-.156-.696-.39-1.266-.702-1.71a2.7 2.7 0 0 0-1.116-.972c-.444-.204-.96-.306-1.548-.306-.78 0-1.458.174-2.034.522-.564.336-1.116.834-1.656 1.494v8.136Zm0-11.52a9.316 9.316 0 0 1 2.43-1.764c.888-.444 1.884-.666 2.988-.666 1.068 0 2.028.216 2.88.648a6.04 6.04 0 0 1 2.196 1.818c.612.792 1.08 1.752 1.404 2.88.336 1.116.504 2.37.504 3.762 0 1.5-.192 2.868-.576 4.104-.372 1.224-.906 2.274-1.602 3.15a7.29 7.29 0 0 1-2.502 2.034c-.96.48-2.034.72-3.222.72-.576 0-1.092-.06-1.548-.18a5.253 5.253 0 0 1-1.26-.468 5.901 5.901 0 0 1-1.062-.72 8.662 8.662 0 0 1-.918-.954l-.198 1.116c-.084.348-.222.594-.414.738-.192.132-.45.198-.774.198h-3.294V62.162h4.968v10.422Zm25.3 8.658c-1.212.06-2.22.168-3.024.324-.804.144-1.446.336-1.926.576-.468.24-.804.516-1.008.828a1.8 1.8 0 0 0-.288.99c0 .72.198 1.23.594 1.53.408.3.972.45 1.692.45.828 0 1.542-.144 2.142-.432.612-.3 1.218-.762 1.818-1.386v-2.88Zm-10.116-8.226a10.977 10.977 0 0 1 3.618-2.196c1.32-.492 2.748-.738 4.284-.738 1.104 0 2.088.18 2.952.54a6.16 6.16 0 0 1 2.214 1.512 6.427 6.427 0 0 1 1.404 2.286c.324.888.486 1.86.486 2.916V89h-2.268c-.468 0-.828-.066-1.08-.198-.24-.132-.438-.408-.594-.828l-.396-1.188c-.468.408-.924.768-1.368 1.08a8.102 8.102 0 0 1-1.35.792c-.468.204-.972.36-1.512.468a8.93 8.93 0 0 1-1.782.162c-.816 0-1.56-.108-2.232-.324a5.02 5.02 0 0 1-1.746-.954 4.378 4.378 0 0 1-1.116-1.602c-.264-.636-.396-1.368-.396-2.196 0-.684.174-1.368.522-2.052.348-.684.942-1.302 1.782-1.854.852-.564 1.98-1.026 3.384-1.386 1.416-.372 3.186-.582 5.31-.63v-.954c0-1.164-.246-2.016-.738-2.556-.492-.552-1.2-.828-2.124-.828-.684 0-1.254.084-1.71.252-.456.156-.858.33-1.206.522-.336.18-.654.354-.954.522-.3.156-.648.234-1.044.234-.348 0-.642-.084-.882-.252-.228-.18-.42-.39-.576-.63l-.882-1.584Zm32.3 1.566a2.229 2.229 0 0 1-.432.45c-.144.096-.348.144-.612.144-.24 0-.474-.066-.702-.198a9.703 9.703 0 0 0-.756-.45 5.477 5.477 0 0 0-1.026-.45c-.396-.144-.888-.216-1.476-.216-.744 0-1.392.138-1.944.414-.54.264-.99.648-1.35 1.152-.36.504-.63 1.116-.81 1.836-.168.72-.252 1.53-.252 2.43 0 1.896.378 3.348 1.134 4.356.768 1.008 1.812 1.512 3.132 1.512a5.47 5.47 0 0 0 1.17-.108 4.24 4.24 0 0 0 .864-.306c.252-.12.468-.252.648-.396.18-.144.348-.276.504-.396.168-.12.33-.216.486-.288a1.23 1.23 0 0 1 .558-.126c.384 0 .684.144.9.432l1.422 1.8a8.721 8.721 0 0 1-1.692 1.53c-.6.396-1.224.714-1.872.954a9.18 9.18 0 0 1-1.944.468c-.66.096-1.314.144-1.962.144-1.14 0-2.22-.21-3.24-.63a7.853 7.853 0 0 1-2.682-1.872c-.768-.816-1.38-1.818-1.836-3.006-.444-1.188-.666-2.544-.666-4.068 0-1.356.198-2.616.594-3.78.396-1.164.978-2.172 1.746-3.024.768-.852 1.716-1.518 2.844-1.998 1.14-.492 2.454-.738 3.942-.738 1.416 0 2.658.228 3.726.684a8.964 8.964 0 0 1 2.88 1.98l-1.296 1.764Zm17.121 0a2.229 2.229 0 0 1-.432.45c-.144.096-.348.144-.612.144-.24 0-.474-.066-.702-.198a9.703 9.703 0 0 0-.756-.45 5.477 5.477 0 0 0-1.026-.45c-.396-.144-.888-.216-1.476-.216-.744 0-1.392.138-1.944.414-.54.264-.99.648-1.35 1.152-.36.504-.63 1.116-.81 1.836-.168.72-.252 1.53-.252 2.43 0 1.896.378 3.348 1.134 4.356.768 1.008 1.812 1.512 3.132 1.512a5.47 5.47 0 0 0 1.17-.108 4.24 4.24 0 0 0 .864-.306c.252-.12.468-.252.648-.396.18-.144.348-.276.504-.396.168-.12.33-.216.486-.288a1.23 1.23 0 0 1 .558-.126c.384 0 .684.144.9.432l1.422 1.8a8.721 8.721 0 0 1-1.692 1.53c-.6.396-1.224.714-1.872.954a9.18 9.18 0 0 1-1.944.468c-.66.096-1.314.144-1.962.144-1.14 0-2.22-.21-3.24-.63a7.853 7.853 0 0 1-2.682-1.872c-.768-.816-1.38-1.818-1.836-3.006-.444-1.188-.666-2.544-.666-4.068 0-1.356.198-2.616.594-3.78.396-1.164.978-2.172 1.746-3.024.768-.852 1.716-1.518 2.844-1.998 1.14-.492 2.454-.738 3.942-.738 1.416 0 2.658.228 3.726.684a8.964 8.964 0 0 1 2.88 1.98l-1.296 1.764Zm12.028-4.428c1.392 0 2.658.222 3.798.666a8.282 8.282 0 0 1 2.934 1.908c.816.816 1.446 1.812 1.89 2.988.444 1.176.666 2.502.666 3.978 0 1.476-.222 2.808-.666 3.996-.444 1.176-1.074 2.178-1.89 3.006a8.282 8.282 0 0 1-2.934 1.908c-1.14.444-2.406.666-3.798.666-1.404 0-2.682-.222-3.834-.666a8.282 8.282 0 0 1-2.934-1.908c-.816-.828-1.452-1.83-1.908-3.006-.444-1.188-.666-2.52-.666-3.996s.222-2.802.666-3.978c.456-1.176 1.092-2.172 1.908-2.988a8.282 8.282 0 0 1 2.934-1.908c1.152-.444 2.43-.666 3.834-.666Zm0 15.39c1.416 0 2.466-.486 3.15-1.458.684-.984 1.026-2.442 1.026-4.374 0-1.92-.342-3.366-1.026-4.338-.684-.984-1.734-1.476-3.15-1.476-1.452 0-2.52.492-3.204 1.476-.684.972-1.026 2.418-1.026 4.338 0 1.932.342 3.39 1.026 4.374.684.972 1.752 1.458 3.204 1.458Zm11.705.846c0-.396.072-.768.216-1.116.156-.36.366-.666.63-.918.264-.264.57-.468.918-.612a2.91 2.91 0 0 1 1.17-.234c.408 0 .792.078 1.152.234.36.144.672.348.936.612.264.252.468.558.612.918.156.348.234.72.234 1.116 0 .408-.078.786-.234 1.134a2.798 2.798 0 0 1-.612.918c-.264.252-.576.45-.936.594-.36.144-.744.216-1.152.216-.42 0-.81-.072-1.17-.216a2.95 2.95 0 0 1-.918-.594 3.051 3.051 0 0 1-.63-.918 2.937 2.937 0 0 1-.216-1.134Z"/></g><defs><clipPath id="a"><path fill="#fff" d="M0 0h217v166H0z"/></clipPath></defs></svg>